<svg viewBox="0 0 12.25 13.5076" xmlns="http://www.w3.org/2000/svg" xmlns:xlink="http://www.w3.org/1999/xlink" width="12.250000" height="13.507568" fill="none" customFrame="#000000">
	<g id="Группа 6">
		<path id="Вектор 20" d="M0.526875 1.78312C0.584156 1.47247 0.733888 1.18635 0.956474 0.962201C1.17906 0.738054 1.46413 0.586326 1.77437 0.526875C1.91688 0.5 2.08875 0.5 2.43125 0.5L9.81875 0.5C10.1613 0.5 10.3331 0.5 10.4756 0.526875C10.7859 0.586326 11.0709 0.738054 11.2935 0.962201C11.5161 1.18635 11.6658 1.47247 11.7231 1.78312C11.75 1.92687 11.75 2.1 11.75 2.44562C11.75 2.78437 11.75 2.95375 11.73 3.11125C11.6876 3.44999 11.577 3.77662 11.4048 4.0714C11.2326 4.36617 11.0024 4.62296 10.7281 4.82625C10.6019 4.92 10.4544 5.0025 10.1606 5.16687L8.55313 6.06625C7.36625 6.73062 6.77312 7.0625 6.125 7.0625C5.47688 7.0625 4.88375 6.73062 3.69687 6.06625L2.08937 5.16625C1.79562 5.0025 1.64875 4.92 1.52187 4.82625C1.24762 4.62296 1.01743 4.36617 0.845227 4.0714C0.673026 3.77662 0.562387 3.44999 0.52 3.11125C0.5 2.95375 0.5 2.78438 0.5 2.44562C0.5 2.1 0.5 1.92687 0.526875 1.78312ZM3.625 2.375L3.625 3M6.125 2.375L6.125 4.25M8.625 2.375L8.625 3" fill-rule="nonzero" stroke="rgb(255,255,255)" stroke-linecap="round" stroke-width="1.000000" />
		<path id="Вектор 21" d="M6.61062 7.78116L7.10562 8.77929C7.14771 8.85415 7.20508 8.91932 7.27399 8.97057C7.3429 9.02182 7.42182 9.05801 7.50562 9.07679L8.4025 9.22679C8.97562 9.32366 9.11062 9.74304 8.6975 10.1574L8 10.8605C7.93897 10.9297 7.89417 11.0116 7.86887 11.1002C7.84356 11.1889 7.8384 11.2821 7.85375 11.373L8.05375 12.2443C8.21125 12.933 7.84812 13.1999 7.24375 12.8393L6.40312 12.3374C6.25062 12.2468 6.00062 12.2468 5.84625 12.3374L5.005 12.8393C4.40312 13.1999 4.0375 12.9305 4.195 12.2443L4.395 11.3737C4.41045 11.2826 4.40533 11.1893 4.38002 11.1005C4.35472 11.0117 4.30986 10.9297 4.24875 10.8605L3.55125 10.1574C3.14062 9.74304 3.27312 9.32366 3.84625 9.22741L4.74375 9.07741C4.82693 9.05809 4.90515 9.02158 4.97339 8.97024C5.04163 8.9189 5.09838 8.85386 5.14 8.77929L5.635 7.78116C5.905 7.23929 6.34375 7.23929 6.61062 7.78116" fill-rule="nonzero" stroke="rgb(255,255,255)" stroke-linecap="round" stroke-linejoin="round" stroke-width="1.000000" />
	</g>
</svg>
