<svg viewBox="0 0 16.0387 16.0388" xmlns="http://www.w3.org/2000/svg" xmlns:xlink="http://www.w3.org/1999/xlink" width="16.038670" height="16.038818" fill="none" customFrame="#000000">
	<g id="Группа 10">
		<path id="Вектор 36" d="M6.8044 8.90118C6.9908 9.15774 7.25364 9.3487 7.55524 9.44669C7.85684 9.54469 8.18172 9.54469 8.48332 9.44669C8.78492 9.3487 9.04776 9.15774 9.23416 8.90118C9.42056 8.64462 9.52095 8.33564 9.52095 8.01852C9.52095 7.7014 9.42056 7.39241 9.23416 7.13586C9.04776 6.8793 8.78492 6.68834 8.48332 6.59034C8.18172 6.49235 7.85684 6.49235 7.55524 6.59034C7.25364 6.68834 6.9908 6.8793 6.8044 7.13586C6.618 7.39241 6.51761 7.7014 6.51761 8.01852C6.51761 8.33564 6.618 8.64462 6.8044 8.90118Z" fill-rule="nonzero" stroke="rgb(255,255,255)" stroke-linecap="round" stroke-linejoin="round" stroke-width="1.000000" />
		<path id="Вектор 37" d="M0.940732 15.0979C1.59746 15.7553 2.97366 15.6398 4.76566 14.7768C6.55765 13.9139 8.61995 12.3742 10.4974 10.4967C12.3748 8.61932 13.9145 6.55769 14.7768 4.7657C15.6398 2.97304 15.7552 1.5975 15.0985 0.940106C14.4411 0.283375 13.0656 0.398837 11.2729 1.2618C9.48091 2.12476 7.41928 3.66447 5.54186 5.54123C3.66443 7.41865 2.12472 9.48028 1.26176 11.2729C0.398796 13.0656 0.283334 14.4411 0.940733 15.0979L0.940732 15.0979Z" fill-rule="nonzero" stroke="rgb(255,255,255)" stroke-linecap="round" stroke-linejoin="round" stroke-width="1.000000" />
		<path id="Вектор 38" d="M5.54186 10.4967C6.44583 11.4054 7.41408 12.2479 8.43908 13.0175C9.42284 13.7516 10.3859 14.3496 11.2729 14.7768C12.1599 15.2039 12.9548 15.4522 13.6115 15.5076C14.2676 15.5623 14.7728 15.4235 15.0985 15.0978C15.4235 14.7728 15.563 14.2675 15.5076 13.6108C15.4529 12.9547 15.204 12.1599 14.7768 11.2729C14.3497 10.3859 13.7517 9.42215 13.0175 8.43905C12.2481 7.41384 11.4059 6.44537 10.4974 5.54116C9.59316 4.63263 8.62469 3.79041 7.59948 3.02102C6.61639 2.28687 5.65332 1.68887 4.76566 1.26173C3.87801 0.834584 3.08379 0.585642 2.42772 0.530914C1.77166 0.476186 1.26643 0.615008 0.940732 0.940036C0.615036 1.26573 0.476215 1.77096 0.530943 2.42703C0.586338 3.08376 0.834614 3.87797 1.26176 4.76563C1.6889 5.65329 2.2869 6.61569 3.02172 7.59878C3.79113 8.62376 4.63335 9.59201 5.54186 10.496" fill-rule="nonzero" stroke="rgb(255,255,255)" stroke-linecap="round" stroke-linejoin="round" stroke-width="1.000000" />
	</g>
</svg>
