<svg viewBox="0 0 12.2563 16.001" xmlns="http://www.w3.org/2000/svg" xmlns:xlink="http://www.w3.org/1999/xlink" width="12.256329" height="16.000977" fill="none" customFrame="#000000">
	<g id="Группа 7">
		<path id="Вектор 24" d="M6.13225 11.7516L6.13225 10.2518M7.43104 9.50195C7.2994 9.72993 7.11008 9.91924 6.88209 10.0509C6.65411 10.1825 6.3955 10.2518 6.13225 10.2518C5.869 10.2518 5.61039 10.1825 5.38241 10.0509C5.15442 9.91924 4.9651 9.72993 4.83347 9.50195" fill-rule="nonzero" stroke="rgb(255,255,255)" stroke-linecap="round" stroke-width="1.000000" />
		<path id="Вектор 25" d="M8.00694 13.6263L4.25756 13.6263M8.93979 1.25333C7.97949 0.699416 6.87691 0.441664 5.77057 0.512458C4.66424 0.583251 3.6035 0.979432 2.72164 1.65122C1.83977 2.32301 1.17611 3.24044 0.814049 4.28825C0.451985 5.33606 0.407664 6.4675 0.686655 7.54041C0.965647 8.61333 1.55551 9.57987 2.38212 10.3186C3.22198 11.0715 3.64266 11.4479 3.75589 11.5874C4.12108 12.0373 4.13683 12.074 4.22907 12.6462C4.25756 12.8239 4.25756 13.0916 4.25756 13.6263C4.25756 14.3274 4.25756 14.6776 4.40829 14.9386C4.50701 15.1095 4.64899 15.2515 4.81997 15.3503C5.08093 15.501 5.43112 15.501 6.13225 15.501C6.83339 15.501 7.18358 15.501 7.44454 15.3503C7.61551 15.2515 7.7575 15.1095 7.85622 14.9386C8.00694 14.6776 8.00694 14.3274 8.00694 13.6263C8.00694 13.0916 8.00694 12.8239 8.03544 12.6462C8.12767 12.074 8.14342 12.0373 8.50861 11.5874C8.62184 11.4479 9.04177 11.0715 9.88238 10.3186C10.4727 9.79169 10.9448 9.14587 11.2678 8.42355C11.5907 7.70123 11.7572 6.91876 11.7563 6.12752C11.7568 5.48898 11.6485 4.85502 11.4361 4.25283" fill-rule="nonzero" stroke="rgb(255,255,255)" stroke-linecap="round" stroke-width="1.000000" />
	</g>
</svg>
