<svg viewBox="0 0 13 16" xmlns="http://www.w3.org/2000/svg" xmlns:xlink="http://www.w3.org/1999/xlink" width="13.000000" height="16.000000" fill="none" customFrame="#000000">
	<g id="Группа 5">
		<path id="Вектор 17" d="M1.15925 1.15925C1.81775 0.5 2.879 0.5 5 0.5L8 0.5C10.121 0.5 11.1822 0.5 11.8407 1.15925C12.5 1.81775 12.5 2.879 12.5 5L12.5 11C12.5 13.121 12.5 14.1823 11.8407 14.8408C11.1822 15.5 10.121 15.5 8 15.5L5 15.5C2.879 15.5 1.81775 15.5 1.15925 14.8408C0.5 14.1823 0.5 13.121 0.5 11L0.5 5C0.5 2.879 0.5 1.81775 1.15925 1.15925Z" fill-rule="nonzero" stroke="rgb(255,255,255)" stroke-width="1.000000" />
		<path id="Вектор 18" d="M12.4235 11L3.4235 11C2.726 11 2.37725 11 2.09075 11.0765C1.70923 11.1788 1.36137 11.3797 1.08213 11.6591C0.802896 11.9385 0.602123 12.2864 0.5 12.668" fill-rule="nonzero" stroke="rgb(255,255,255)" stroke-width="1.000000" />
		<path id="Вектор 19" d="M3.5 4.25L9.5 4.25M3.5 6.875L7.25 6.875" stroke="rgb(255,255,255)" stroke-linecap="round" stroke-width="1.000000" />
	</g>
</svg>
